HIERARCHY
ROOT reference
{
  OFFSET 0 0 0
  CHANNELS 6 Xposition Yposition Zposition Zrotation Xrotation Yrotation
  JOINT Hips
  {
    OFFSET 1.74901 79.0106 79.3559
    CHANNELS 6 Xposition Yposition Zposition Zrotation Xrotation Yrotation
    JOINT Spine
    {
      OFFSET 0 7.88368 0
      CHANNELS 6 Xposition Yposition Zposition Zrotation Xrotation Yrotation
      JOINT Spine1
      {
        OFFSET 0 24.7763 0
        CHANNELS 6 Xposition Yposition Zposition Zrotation Xrotation Yrotation
        JOINT Neck
        {
          OFFSET 0 24.6746 2.24314
          CHANNELS 6 Xposition Yposition Zposition Zrotation Xrotation Yrotation
          JOINT Head
          {
            OFFSET 0 13.4599 -1.92285
            CHANNELS 6 Xposition Yposition Zposition Zrotation Xrotation Yrotation
            End Site
            {
              OFFSET 0 24.0356 0
            }
          }
        }
        JOINT LeftShoulder
        {
          OFFSET 3.81022 22.3233 -0.325006
          CHANNELS 6 Xposition Yposition Zposition Zrotation Xrotation Yrotation
          JOINT LeftArm
          {
            OFFSET 12.5606 0 0
            CHANNELS 6 Xposition Yposition Zposition Zrotation Xrotation Yrotation
            JOINT LeftForeArm
            {
              OFFSET 28.8068 0 0
              CHANNELS 6 Xposition Yposition Zposition Zrotation Xrotation Yrotation
              JOINT LeftHand
              {
                OFFSET 23.8139 0 0
                CHANNELS 6 Xposition Yposition Zposition Zrotation Xrotation Yrotation
                End Site
                {
                  OFFSET 14.4214 0 0
                }
              }
            }
          }
        }
        JOINT RightShoulder
        {
          OFFSET -3.82306 22.3233 -0.325006
          CHANNELS 6 Xposition Yposition Zposition Zrotation Xrotation Yrotation
          JOINT RightArm
          {
            OFFSET -12.5606 0 0
            CHANNELS 6 Xposition Yposition Zposition Zrotation Xrotation Yrotation
            JOINT RightForeArm
            {
              OFFSET -28.8068 0 0
              CHANNELS 6 Xposition Yposition Zposition Zrotation Xrotation Yrotation
              JOINT RightHand
              {
                OFFSET -23.8139 0 0
                CHANNELS 6 Xposition Yposition Zposition Zrotation Xrotation Yrotation
                End Site
                {
                  OFFSET -14.4214 0 0
                }
              }
            }
          }
        }
      }
    }
    JOINT LeftUpLeg
    {
      OFFSET 9.61425 0 0
      CHANNELS 6 Xposition Yposition Zposition Zrotation Xrotation Yrotation
      JOINT LeftLeg
      {
        OFFSET 0 -41.4642 0
        CHANNELS 6 Xposition Yposition Zposition Zrotation Xrotation Yrotation
        JOINT LeftFoot
        {
          OFFSET 0 -34.276 0
          CHANNELS 6 Xposition Yposition Zposition Zrotation Xrotation Yrotation
          JOINT LeftToeBase
          {
            OFFSET 0 -6.24926 14.4214
            CHANNELS 6 Xposition Yposition Zposition Zrotation Xrotation Yrotation
            End Site
            {
              OFFSET 0 0 3.8457
            }
          }
        }
      }
    }
    JOINT RightUpLeg
    {
      OFFSET -9.61425 0 0
      CHANNELS 6 Xposition Yposition Zposition Zrotation Xrotation Yrotation
      JOINT RightLeg
      {
        OFFSET 0 -41.4642 0
        CHANNELS 6 Xposition Yposition Zposition Zrotation Xrotation Yrotation
        JOINT RightFoot
        {
          OFFSET 0 -34.276 0
          CHANNELS 6 Xposition Yposition Zposition Zrotation Xrotation Yrotation
          JOINT RightToeBase
          {
            OFFSET 0 -6.24926 14.4214
            CHANNELS 6 Xposition Yposition Zposition Zrotation Xrotation Yrotation
            End Site
            {
              OFFSET 0 0 3.8457
            }
          }
        }
      }
    }
  }
}
MOTION
Frames:	7
Frame Time:	0.004
0 0 0 0 0 -0 -14.2091 79.6667 -200.695 1.30277 -1.4502 -0.0735038 0 7.88368 0 -1.55346 0.69017 -0.171974 0 24.7763 0 0.182636 -7.78291 -0.170634 1.77636e-015 24.6746 2.24314 6.43346 12.4646 -2.98799 -1.77636e-015 13.4599 -1.92285 0.918612 2.66227 -3.22945 3.81022 22.3233 -0.325006 14.0382 3.37245 9.01264 12.5606 0 2.84217e-014 -20.7607 -4.59767 -1.66792 28.8068 0 0 9.19397 0.102632 -12.8906 23.8139 0 -2.84217e-014 -8.56559 1.19363 -0.617005 -3.82306 22.3233 -0.325006 -14.7388 -0.429399 9.25902 -12.5606 2.84217e-014 -2.84217e-014 15.2025 -3.93284 -4.39557 -28.8068 2.84217e-014 -2.84217e-014 -5.61691 -0.847653 9.90443 -23.8139 2.84217e-014 0 -2.56747 -0.413205 2.346 9.61425 0 -2.84217e-014 0.0122191 7.72169 1.22371 0 -41.4642 0 -8.70247 -5.13486 1.56079 0 -34.276 -2.84217e-014 8.05855 -2.79178 14.3964 0 -6.24926 14.4214 -9.93923e-017 -3.97569e-016 3.18055e-015 -9.61425 0 0 -2.09024 7.90499 2.55625 3.55271e-015 -41.4642 -2.84217e-014 5.45537 -8.22485 0.93461 -3.55271e-015 -34.276 0 -6.41647 -2.44783 -10.1625 0 -6.24926 14.4214 1.98785e-016 0 1.59028e-015 
0 0 0 0 0 -0 -14.2212 79.6667 -200.695 1.30277 -1.4502 -0.0735038 1.77636e-015 7.88368 -2.84217e-014 -1.55347 0.68633 -0.171974 1.77636e-015 24.7763 -2.84217e-014 0.176817 -7.77319 -0.17063 1.77636e-015 24.6746 2.24314 6.45066 12.4792 -2.98773 1.77636e-015 13.4599 -1.92285 0.902883 2.65065 -3.23067 3.81022 22.3233 -0.325006 14.0389 3.37255 9.00143 12.5606 2.84217e-014 -2.84217e-014 -20.7904 -4.62191 -1.6581 28.8068 0 0 9.18287 0.102648 -12.8514 23.8139 0 2.84217e-014 -8.57105 1.19745 -0.620081 -3.82306 22.3233 -0.325006 -14.7213 -0.429399 9.25902 -12.5606 0 0 15.1825 -3.93292 -4.40599 -28.8068 -2.84217e-014 0 -5.60725 -0.823319 9.87637 -23.8139 0 0 -2.50543 -0.388618 2.29517 9.61425 -1.42109e-014 -2.84217e-014 0.0122191 7.72169 1.22371 0 -41.4642 0 -8.70247 -5.13486 1.56079 0 -34.276 -2.84217e-014 8.01888 -2.80226 14.3966 0 -6.24926 14.4214 9.93923e-017 -1.98785e-016 3.18055e-015 -9.61425 -1.42109e-014 0 -2.09261 7.90488 2.57343 -5.32907e-015 -41.4642 0 5.45324 -8.22488 0.919745 0 -34.276 0 -6.46524 -2.43332 -10.13 7.10543e-015 -6.24926 14.4214 -9.93923e-017 7.95139e-016 1.59028e-015 
0 0 0 0 0 -0 -14.2261 79.6667 -200.695 1.30277 -1.4502 -0.0735038 0 7.88368 0 -1.55349 0.679823 -0.171974 1.77636e-015 24.7763 0 0.169297 -7.75514 -0.170623 1.77636e-015 24.6746 2.24314 6.4378 12.4661 -2.97865 -1.77636e-015 13.4599 -1.92285 0.917889 2.66879 -3.21989 3.81022 22.3233 -0.325006 14.0379 3.37241 9.01682 12.5606 0 2.84217e-014 -20.8025 -4.61475 -1.65354 28.8068 2.84217e-014 -2.84217e-014 9.18105 0.102651 -12.8442 23.8139 0 0 -8.58237 1.18316 -0.597707 -3.82306 22.3233 -0.325006 -14.729 -0.428541 9.25902 -12.5606 0 -2.84217e-014 15.1915 -3.94499 -4.4067 -28.8068 2.84217e-014 0 -5.61292 -0.818353 9.86015 -23.8139 -2.84217e-014 2.84217e-014 -2.432 -0.382857 2.30112 9.61425 -1.42109e-014 0 0.0122191 7.72169 1.22371 0 -41.4642 0 -8.70247 -5.13486 1.56079 -1.77636e-015 -34.276 0 8.04163 -2.78817 14.3964 0 -6.24926 14.4214 -5.46658e-016 -3.97569e-016 -0 -9.61425 -1.42109e-014 0 -2.08861 7.90506 2.54436 0 -41.4642 0 5.45933 -8.22481 0.951598 3.55271e-015 -34.276 0 -6.45476 -2.43734 -10.1453 0 -6.24926 14.4214 0 0 -3.18055e-015 
0 0 0 0 0 -0 -14.2314 79.6667 -200.695 1.30269 -1.4502 -0.076801 1.77636e-015 7.88368 0 -1.55351 0.672123 -0.171974 1.77636e-015 24.7763 0 0.16494 -7.75 -0.170621 3.55271e-015 24.6746 2.24314 6.45975 12.473 -2.97122 -1.77636e-015 13.4599 -1.92285 0.889779 2.6643 -3.21586 3.81022 22.3233 -0.325006 14.038 3.37241 9.01653 12.5606 0 0 -20.8273 -4.60714 -1.64043 28.8068 0 0 9.18222 0.102654 -12.838 23.8139 0 2.84217e-014 -8.6015 1.18928 -0.581172 -3.82306 22.3233 -0.325006 -14.7243 -0.441335 9.25903 -12.5606 0 2.84217e-014 15.1915 -3.94246 -4.40761 -28.8068 -2.84217e-014 0 -5.61153 -0.81053 9.83915 -23.8139 -2.84217e-014 0 -2.38784 -0.374457 2.28447 9.61425 1.42109e-014 0 0.0122191 7.72169 1.22371 0 -41.4642 2.84217e-014 -8.70188 -5.13484 1.56738 -1.77636e-015 -34.276 0 8.03298 -2.79333 14.3965 0 -6.24926 14.4214 -9.93923e-017 5.96354e-016 -3.18055e-015 -9.61425 0 0 -2.09041 7.90497 2.55929 0 -41.4642 0 5.46062 -8.22484 0.937974 -1.77636e-015 -34.276 -2.84217e-014 -6.47178 -2.43572 -10.124 0 -6.24926 14.4214 -9.93923e-017 0 -0 
0 0 0 0 0 -0 -14.2355 79.6667 -200.695 1.3026 -1.4502 -0.08029 1.77636e-015 7.88368 0 -1.55352 0.670391 -0.171974 0 24.7763 0 0.154213 -7.74351 -0.171181 0 24.6746 2.24314 6.37212 12.5452 -2.96067 1.77636e-015 13.4599 -1.92285 1.04452 2.54463 -3.17785 3.81022 22.3233 -0.325006 14.0382 3.37245 9.01265 12.5606 0 0 -20.8211 -4.59719 -1.63988 28.8068 0 2.84217e-014 9.15966 0.102665 -12.8105 23.8139 2.84217e-014 0 -8.58436 1.17806 -0.59937 -3.82306 22.3233 -0.325006 -14.7249 -0.444396 9.25904 -12.5606 2.84217e-014 0 15.1917 -3.95366 -4.41013 -28.8068 0 0 -5.61124 -0.800991 9.82136 -23.8139 -2.84217e-014 0 -2.33431 -0.364899 2.2741 9.61425 1.42109e-014 0 0.0122191 7.72169 1.22371 4.44089e-016 -41.4642 -2.84217e-014 -8.69923 -5.1348 1.58457 1.77636e-015 -34.276 0 8.03417 -2.7903 14.3964 0 -6.24926 14.4214 1.49089e-016 -1.98785e-016 3.18055e-015 -9.61425 -1.42109e-014 2.84217e-014 -2.09156 7.90502 2.55124 3.55271e-015 -41.4642 0 5.4652 -8.22482 0.945443 1.77636e-015 -34.276 0 -6.45136 -2.43301 -10.1308 0 -6.24926 14.4214 9.93923e-017 0 -0 
0 0 0 0 0 -0 -14.242 79.6667 -200.695 1.30241 -1.44866 -0.0877631 0 7.88368 0 -1.55352 0.670023 -0.171974 -1.77636e-015 24.7763 0 0.147411 -7.74749 -0.171745 0 24.6746 2.24314 6.39155 12.5703 -2.96257 1.77636e-015 13.4599 -1.92285 1.02349 2.52561 -3.18138 3.81022 22.3233 -0.325006 14.0383 3.37247 9.0108 12.5606 2.84217e-014 2.84217e-014 -20.8502 -4.61725 -1.63075 28.8068 -2.84217e-014 2.84217e-014 9.16482 0.118565 -12.7935 23.8139 2.84217e-014 -2.84217e-014 -8.63393 1.19271 -0.589492 -3.82306 22.3233 -0.325006 -14.7234 -0.44061 9.25903 -12.5606 0 0 15.193 -3.94856 -4.42007 -28.8068 -2.84217e-014 -2.84217e-014 -5.62007 -0.807511 9.80266 -23.8139 0 0 -2.27501 -0.369856 2.2493 9.61425 0 -2.84217e-014 0.0122191 7.72169 1.22371 -8.88178e-016 -41.4642 0 -8.69797 -5.13536 1.57529 0 -34.276 0 8.03775 -2.78572 14.4093 -7.10543e-015 -6.24926 14.4214 -9.93923e-017 0 -0 -9.61425 1.42109e-014 0 -2.09387 7.90503 2.54859 0 -41.4642 0 5.46826 -8.22482 0.947159 -1.77636e-015 -34.276 -2.84217e-014 -6.45938 -2.43014 -10.134 0 -6.24926 14.4214 -1.98785e-016 -7.95139e-016 -1.59028e-015 
0 0 0 0 0 -0 -14.2475 79.6667 -200.695 1.30689 -1.44724 -0.0928541 0 7.88368 0 -1.55352 0.669841 -0.171974 0 24.7763 -2.84217e-014 0.148636 -7.74088 -0.172304 0 24.6746 2.24314 6.37798 12.5787 -2.9585 0 13.4599 -1.92285 1.0406 2.51672 -3.16905 3.81022 22.3233 -0.325006 14.0376 3.37235 9.02267 12.5606 0 -2.84217e-014 -20.8615 -4.61995 -1.64358 28.8068 2.84217e-014 -2.84217e-014 9.15865 0.09782 -12.7683 23.8139 0 0 -8.69012 1.16925 -0.597338 -3.82306 22.3233 -0.325006 -14.7212 -0.43766 9.25903 -12.5606 0 0 15.1949 -3.94904 -4.41387 -28.8068 0 2.84217e-014 -5.62211 -0.803445 9.78109 -23.8139 0 0 -2.22922 -0.365809 2.24507 9.61425 -1.42109e-014 0 0.0122191 7.72169 1.22371 -4.44089e-016 -41.4642 -2.84217e-014 -8.69425 -5.13582 1.5902 0 -34.276 0 8.03794 -2.78177 14.3867 -7.10543e-015 -6.24926 14.4214 3.47873e-016 -1.98785e-016 3.18055e-015 -9.61425 -1.42109e-014 2.84217e-014 -2.09978 7.90489 2.57172 0 -41.4642 0 5.46878 -8.22479 0.957593 -3.55271e-015 -34.276 2.84217e-014 -6.46509 -2.4277 -10.14 0 -6.24926 14.4214 -1.98785e-016 1.59028e-015 3.18055e-015 
